<?xml version="1.0" encoding="UTF-8"?><svg id="a" xmlns="http://www.w3.org/2000/svg" viewBox="0 0 581.41 189.21"><defs><style>.b{fill:#c99c70;}</style></defs><path class="b" d="M189.39,60.58c-1.38,1.24-2.91,2.43-4.58,3.57-.08,.05-.16,.1-.24,.15-11.68,7.95-29.84,13.7-49.99,16.93-10.3,1.81-22.62,2.98-36.94,2.98-49.8,0-75.48-14.11-75.48-20.13s25.68-20.13,75.48-20.13c33.29,0,55.79,6.31,67.06,12.29,8-3.31,13.13-6.77,15.38-9.53-14.66-11.74-44.03-18.27-74.37-19.25v-7.41h4.53c3.67,0,6.65-2.98,6.65-6.65s-2.98-6.65-6.65-6.65h-25.19c-3.67,0-6.65,2.98-6.65,6.65s2.98,6.65,6.65,6.65h4.53v7.41C46.59,28.84,5.54,41.36,5.54,64.08c0,24.13,46.34,36.76,92.11,36.76,28.86,0,57.93-5.02,75.48-14.78v59.65c0,6.02-25.68,20.13-75.48,20.13s-75.48-14.11-75.48-20.13v-41.49c-6.99-3.07-12.43-6.2-16.63-9.31v50.8c0,24.13,46.34,36.76,92.11,36.76s92.11-12.63,92.11-36.76V64.08c0-1.2-.15-2.36-.37-3.5Z"/><g><path class="b" d="M299.78,76.47c-2.93-1.58-6.06-2.91-9.36-4.01-3.31-1.09-6.47-1.64-9.48-1.64-4.06,0-7.26,.9-9.59,2.71-2.33,1.8-3.5,4.29-3.5,7.45,0,2.26,.81,4.23,2.43,5.92,1.62,1.69,3.7,3.16,6.26,4.4,2.56,1.24,5.26,2.43,8.12,3.55,2.48,.9,4.93,1.97,7.33,3.22,2.41,1.24,4.61,2.75,6.6,4.51,1.99,1.77,3.57,4.03,4.74,6.77,1.17,2.75,1.75,6.04,1.75,9.87,0,4.36-1.07,8.29-3.22,11.79-2.14,3.5-5.29,6.32-9.42,8.46-4.14,2.14-9.07,3.22-14.78,3.22-3.46,0-6.83-.38-10.1-1.13-3.27-.75-6.38-1.77-9.31-3.05-2.93-1.28-5.64-2.82-8.12-4.63l5.87-10.15c1.8,1.35,3.87,2.59,6.21,3.72,2.33,1.13,4.72,2.03,7.16,2.71,2.44,.68,4.79,1.02,7.05,1.02s4.57-.39,6.94-1.18c2.37-.79,4.3-2.05,5.81-3.78,1.5-1.73,2.26-4.06,2.26-7,0-2.33-.68-4.31-2.03-5.92-1.35-1.62-3.1-3.05-5.25-4.29-2.14-1.24-4.49-2.35-7.05-3.33-2.48-.98-5.08-2.07-7.78-3.27-2.71-1.2-5.21-2.69-7.5-4.46-2.3-1.77-4.12-3.93-5.47-6.49-1.35-2.56-2.03-5.68-2.03-9.37,0-4.51,1.02-8.44,3.05-11.79,2.03-3.35,4.94-6,8.74-7.95,3.8-1.95,8.1-3.01,12.92-3.16,5.79,0,10.74,.7,14.84,2.09,4.1,1.39,7.77,3.1,11,5.13l-5.08,10.04Z"/><path class="b" d="M320.65,59.66h54.95v12.64h-21.21v69.51h-13.09V72.3h-20.65v-12.64Z"/><path class="b" d="M438.11,141.8h15.01l-36.33-85.53h-.79l-36.44,85.53h12.98l8-19.41h29.91l7.68,19.41Zm-33.03-30.46l10.7-25.96,10.28,25.96h-20.97Z"/><path class="b" d="M479.41,112.24c0,3.24,.85,6.19,2.54,8.86,1.69,2.67,3.93,4.83,6.71,6.49,2.78,1.66,5.91,2.48,9.37,2.48s6.84-.83,9.7-2.48c2.86-1.65,5.13-3.82,6.83-6.49,1.69-2.67,2.54-5.62,2.54-8.86V59.66h12.86v52.81c0,6.02-1.43,11.3-4.29,15.85-2.86,4.55-6.71,8.09-11.57,10.61-4.85,2.52-10.21,3.78-16.08,3.78s-11.21-1.26-16.02-3.78c-4.81-2.52-8.65-6.05-11.51-10.61-2.86-4.55-4.29-9.83-4.29-15.85V59.66h13.2v52.58Z"/><path class="b" d="M575.88,126.01c0,6.77-1.34,12.58-4.01,17.43-2.67,4.85-6.34,8.58-11,11.17-4.66,2.59-10,4.01-16.02,4.23v-12.75c5.19-.3,9.46-2.05,12.81-5.25,3.35-3.2,5.02-8.25,5.02-15.18V59.66h13.2V126.01Z"/></g></svg>